<svg width="128" height="128" viewBox="0 0 128 128" fill="none" xmlns="http://www.w3.org/2000/svg" aria-hidden="true">
  <g fill="currentColor">
    <path d="M38.3 14.8c2.4-2.4 6.4-2.4 8.8 0l12.7 12.7c1.9 1.9 2.3 4.8.9 7.1l-5.5 9.6 28.4 28.4 9.6-5.5c2.3-1.3 5.2-1 7.1.9l12.7 12.7c2.4 2.4 2.4 6.4 0 8.8l-9.8 9.8c-2.4 2.4-6.4 2.4-8.8 0L81.7 86.6c-1.9-1.9-2.3-4.8-.9-7.1l5.5-9.6-28.4-28.4-9.6 5.5c-2.3 1.3-5.2 1-7.1-.9L28.5 33.4c-2.4-2.4-2.4-6.4 0-8.8l9.8-9.8Z"/>
    <path d="M89.7 14.8c-2.4-2.4-6.4-2.4-8.8 0L68.2 27.5c-1.9 1.9-2.3 4.8-.9 7.1l5.5 9.6-28.4 28.4-9.6-5.5c-2.3-1.3-5.2-1-7.1.9L15 80.7c-2.4 2.4-2.4 6.4 0 8.8l9.8 9.8c2.4 2.4 6.4 2.4 8.8 0l12.7-12.7c1.9-1.9 2.3-4.8.9-7.1l-5.5-9.6 28.4-28.4 9.6 5.5c2.3 1.3 5.2 1 7.1-.9l12.7-12.7c2.4-2.4 2.4-6.4 0-8.8l-9.8-9.8Z"/>
    <rect x="53.2" y="52.7" width="21.6" height="22.6" rx="4" transform="rotate(-45 53.2 52.7)"/>
  </g>
</svg>
