<svg width="128" height="128" viewBox="0 0 128 128" fill="none" xmlns="http://www.w3.org/2000/svg" aria-hidden="true">
  <g fill="currentColor">
    <path d="M45 107.5h38L80.8 91H47.2L45 107.5Z"/>
    <path d="M36 112.5c0-2.8 2.2-5 5-5h46c2.8 0 5 2.2 5 5v3H36v-3Z"/>
    <path d="M64 12c-10.5 0-18.8 7.5-18.8 16.9 0 4.3 1.8 8.2 4.7 11.2-4.6 3.2-7.6 8.1-7.6 13.5 0 3.4 1.2 6.6 3.2 9.3-7 3.8-11.7 10.7-11.7 18.7V88h60.4v-6.4c0-8-4.7-14.9-11.7-18.7 2-2.7 3.2-5.9 3.2-9.3 0-5.4-3-10.3-7.6-13.5 2.9-3 4.7-6.9 4.7-11.2C82.8 19.5 74.5 12 64 12Z"/>
  </g>
</svg>
