<svg width="128" height="128" viewBox="0 0 128 128" fill="none" xmlns="http://www.w3.org/2000/svg" aria-hidden="true">
  <path d="M33 38.5c0-2.6 1.9-4.8 4.5-5.2L52 31.1v-4.6c0-3 2.5-5.5 5.5-5.5h13c3 0 5.5 2.5 5.5 5.5v4.6l14.5 2.2c2.6.4 4.5 2.6 4.5 5.2v16.2c0 2.6-1.9 4.8-4.5 5.2L64 63.8l-26.5-3.9c-2.6-.4-4.5-2.6-4.5-5.2V38.5Z" fill="currentColor"/>
  <path d="M47.7 70.1h32.6l-1.4 29.2h7.1c2.4 0 4.4 2 4.4 4.4v2.5H37.6v-2.5c0-2.4 2-4.4 4.4-4.4h7.1l-1.4-29.2Zm10.2 0-1.3 24.5h14.8l-1.3-24.5H57.9Z" fill="currentColor"/>
  <path d="M28.5 112c0-2.8 2.2-5 5-5h61c2.8 0 5 2.2 5 5v1.6H28.5V112Z" fill="currentColor"/>
</svg>
