<svg width="128" height="128" viewBox="0 0 128 128" fill="none" xmlns="http://www.w3.org/2000/svg" aria-hidden="true">
  <g fill="currentColor">
    <circle cx="64" cy="43" r="17"/>
    <circle cx="33.5" cy="51" r="12" opacity="0.92"/>
    <circle cx="94.5" cy="51" r="12" opacity="0.92"/>
    <path d="M23 103.5c0-12.6 10.2-22.8 22.8-22.8h36.4c12.6 0 22.8 10.2 22.8 22.8 0 2.5-2 4.5-4.5 4.5h-73c-2.5 0-4.5-2-4.5-4.5Z"/>
    <path d="M8.5 103.5c0-9.4 7.6-17 17-17h10.3c2.1 0 3.9 1.5 4.4 3.5l2.2 10.7c.6 3-1.7 5.8-4.7 5.8H13c-2.5 0-4.5-2-4.5-4.5Z" opacity="0.9"/>
    <path d="M119.5 103.5c0-9.4-7.6-17-17-17H92.2c-2.1 0-3.9 1.5-4.4 3.5l-2.2 10.7c-.6 3 1.7 5.8 4.7 5.8H115c2.5 0 4.5-2 4.5-4.5Z" opacity="0.9"/>
  </g>
</svg>
