<svg width="128" height="128" viewBox="0 0 128 128" fill="none" xmlns="http://www.w3.org/2000/svg" aria-hidden="true">
  <path d="M77.5 56.8c5.6-4.6 9.2-11.6 9.2-19.4C86.7 23 76.1 12.4 63 12.4S39.3 23 39.3 37.4c0 8 3.8 15 9.6 19.6-10.6 4.5-21.2 11.2-21.2 22.2 0 2.4 2 4.4 4.4 4.4h50.8c2.4 0 4.4-2 4.4-4.4 0-11.5-10.5-18.1-21.8-22.4Z" fill="currentColor"/>
  <path d="M100.5 60.5c4.1-3.6 6.7-8.8 6.7-14.7 0-10.8-8.8-19.5-19.5-19.5-2.7 0-5.2.5-7.5 1.5 3.7 4.8 5.9 10.9 5.9 17.6 0 6.6-2.2 12.7-5.8 17.5 9.5 3.4 19.9 8.8 22.8 18.6h18.7c2.2 0 4-1.8 4-4 0-8.8-8.2-13.7-21.3-17Z" fill="currentColor" opacity="0.92"/>
</svg>
