<svg width="32" height="32" viewBox="0 0 32 32" fill="none" xmlns="http://www.w3.org/2000/svg">
<path d="M30.47 7.60986H28.95V10.6599H25.9V12.1899H22.85V13.7099H25.9V18.2799H24.38V19.8099H25.9V22.8499H27.42V12.1899H28.95V25.8999H27.42V31.9999H32V25.8999H30.47V7.60986Z" fill="#BFFB4F"/>
<path d="M28.95 6.08984H25.9V7.60984H28.95V6.08984Z" fill="#BFFB4F"/>
<path d="M25.9 22.8501H24.38V24.3801H25.9V22.8501Z" fill="#BFFB4F"/>
<path d="M25.9 9.14014H19.8V10.6601H25.9V9.14014Z" fill="#BFFB4F"/>
<path d="M25.9 4.56982H22.85V6.08982H25.9V4.56982Z" fill="#BFFB4F"/>
<path d="M24.38 24.3799H21.33V25.8999H24.38V24.3799Z" fill="#BFFB4F"/>
<path d="M24.38 19.8101H21.33V21.3301H24.38V19.8101Z" fill="#BFFB4F"/>
<path d="M22.85 13.71H19.8V15.23H22.85V13.71Z" fill="#BFFB4F"/>
<path d="M22.85 3.04004H19.8V4.57004H22.85V3.04004Z" fill="#BFFB4F"/>
<path d="M21.33 25.8999H9.14001V27.4199H21.33V25.8999Z" fill="#BFFB4F"/>
<path d="M21.33 21.3301H9.14001V22.8501H21.33V21.3301Z" fill="#BFFB4F"/>
<path d="M19.8 15.23H16.76V16.76H19.8V15.23Z" fill="#BFFB4F"/>
<path d="M19.8 7.60986H13.71V9.13986H19.8V7.60986Z" fill="#BFFB4F"/>
<path d="M19.8 1.52002H16.76V3.04002H19.8V1.52002Z" fill="#BFFB4F"/>
<path d="M16.76 0H13.71V1.52H16.76V0Z" fill="#BFFB4F"/>
<path d="M16.76 16.7598H13.71V18.2798H16.76V16.7598Z" fill="#BFFB4F"/>
<path d="M13.71 1.52002H10.66V3.04002H13.71V1.52002Z" fill="#BFFB4F"/>
<path d="M13.71 15.23H10.66V16.76H13.71V15.23Z" fill="#BFFB4F"/>
<path d="M10.66 3.04004H7.60999V4.57004H10.66V3.04004Z" fill="#BFFB4F"/>
<path d="M9.13997 24.3799H6.08997V25.8999H9.13997V24.3799Z" fill="#BFFB4F"/>
<path d="M9.13997 19.8101H6.08997V21.3301H9.13997V19.8101Z" fill="#BFFB4F"/>
<path d="M10.66 13.71H7.60999V15.23H10.66V13.71Z" fill="#BFFB4F"/>
<path d="M7.60995 4.56982H4.56995V6.08982H7.60995V4.56982Z" fill="#BFFB4F"/>
<path d="M6.08995 22.8501H4.56995V24.3801H6.08995V22.8501Z" fill="#BFFB4F"/>
<path d="M6.09002 19.8102V18.2802H4.57002V13.7102H7.61002V12.1902H4.57002V10.6602H1.52002V12.1902H3.04002V22.8502H4.57002V19.8102H6.09002Z" fill="#BFFB4F"/>
<path d="M4.57002 6.08984H1.52002V7.60984H4.57002V6.08984Z" fill="#BFFB4F"/>
<path d="M1.52 7.60986H0V10.6599H1.52V7.60986Z" fill="#BFFB4F"/>
</svg>
