<svg width="32" height="32" viewBox="0 0 32 32" fill="none" xmlns="http://www.w3.org/2000/svg">
<path d="M28.19 26.6597H26.67V29.7097H28.19V26.6597Z" fill="#BFFB4F"/>
<path d="M26.67 9.8999H25.15V12.9499H26.67V9.8999Z" fill="#BFFB4F"/>
<path d="M26.6701 29.71H6.86011V31.24H26.6701V29.71Z" fill="#BFFB4F"/>
<path d="M25.1501 12.9497H23.6201V14.4697H25.1501V12.9497Z" fill="#BFFB4F"/>
<path d="M25.1501 8.37988H23.6201V9.89988H25.1501V8.37988Z" fill="#BFFB4F"/>
<path d="M23.6201 17.5195H22.1001V20.5695H23.6201V17.5195Z" fill="#BFFB4F"/>
<path d="M23.6201 6.85986H22.1001V8.37986H23.6201V6.85986Z" fill="#BFFB4F"/>
<path d="M19.05 14.4697V15.9997H20.57V17.5197H22.1V15.9997H23.6201V14.4697H19.05Z" fill="#BFFB4F"/>
<path d="M22.1001 9.8999H20.5701V11.4299H22.1001V9.8999Z" fill="#BFFB4F"/>
<path d="M22.1001 3.80957H20.5701V6.85957H22.1001V3.80957Z" fill="#BFFB4F"/>
<path d="M20.57 2.27979H19.05V3.80979H20.57V2.27979Z" fill="#BFFB4F"/>
<path d="M19.05 12.9497H17.53V14.4697H19.05V12.9497Z" fill="#BFFB4F"/>
<path d="M19.05 6.85986H17.53V8.37986H19.05V6.85986Z" fill="#BFFB4F"/>
<path d="M19.05 0.759766H17.53V2.27977H19.05V0.759766Z" fill="#BFFB4F"/>
<path d="M17.53 11.4297H16V12.9497H17.53V11.4297Z" fill="#BFFB4F"/>
<path d="M17.53 5.32959H16V6.85959H17.53V5.32959Z" fill="#BFFB4F"/>
<path d="M16.0001 6.85986H14.4801V8.37986H16.0001V6.85986Z" fill="#BFFB4F"/>
<path d="M17.5301 2.27979H14.4801V3.80979H17.5301V2.27979Z" fill="#BFFB4F"/>
<path d="M14.4801 0.759766H12.9601V2.27977H14.4801V0.759766Z" fill="#BFFB4F"/>
<path d="M11.4301 20.5698H12.9601V17.5198H11.4301V15.9998H9.91006V8.37979H11.4301V6.85979H12.9601V2.27979H9.91006V3.80979H6.86006V5.32979H5.34006V6.85979H3.81006V15.9998H5.34006V17.5198H6.86006V19.0498H9.91006V22.0898H11.4301V20.5698ZM8.38006 15.9998H6.86006V14.4698H8.38006V15.9998ZM8.38006 11.4298H5.34006V9.89979H8.38006V11.4298ZM8.38006 6.85979V5.32979H9.91006V6.85979H8.38006Z" fill="#BFFB4F"/>
<path d="M26.6701 26.6598V25.1398H25.1501V20.5698H23.6201V25.1398H9.91011V22.0898H8.38011V25.1398H6.86011V26.6598H26.6701Z" fill="#BFFB4F"/>
<path d="M6.86009 26.6597H5.34009V29.7097H6.86009V26.6597Z" fill="#BFFB4F"/>
</svg>
