<svg width="32" height="32" viewBox="0 0 32 32" fill="none" xmlns="http://www.w3.org/2000/svg">
<path d="M30.48 12.9551H28.95V17.5251H25.91V19.0551H28.95V20.5751H25.91V22.0951H28.95V23.6251H30.48V22.0951H32V20.5751H30.48V19.0551H32V17.5251H30.48V12.9551Z" fill="#BFFB4F"/>
<path d="M28.95 23.625H27.43V25.145H28.95V23.625Z" fill="#BFFB4F"/>
<path d="M28.95 9.90527H27.43V12.9553H28.95V9.90527Z" fill="#BFFB4F"/>
<path d="M27.43 25.145H25.91V26.675H27.43V25.145Z" fill="#BFFB4F"/>
<path d="M27.43 6.86523H25.91V9.90523H27.43V6.86523Z" fill="#BFFB4F"/>
<path d="M25.91 3.81494H24.38V6.86494H25.91V3.81494Z" fill="#BFFB4F"/>
<path d="M25.91 26.6753H22.86V28.1953H25.91V26.6753Z" fill="#BFFB4F"/>
<path d="M24.38 22.0952H22.86V23.6252H24.38V22.0952Z" fill="#BFFB4F"/>
<path d="M24.38 19.0552H22.86V20.5752H24.38V19.0552Z" fill="#BFFB4F"/>
<path d="M24.38 2.28516H22.86V3.81516H24.38V2.28516Z" fill="#BFFB4F"/>
<path d="M22.86 3.81494H21.34V5.33494H22.86V3.81494Z" fill="#BFFB4F"/>
<path d="M22.86 28.1953H9.14999V29.7153H22.86V28.1953Z" fill="#BFFB4F"/>
<path d="M21.34 8.38525H19.81V11.4353H21.34V8.38525Z" fill="#BFFB4F"/>
<path d="M21.34 5.33496H19.81V6.86496H21.34V5.33496Z" fill="#BFFB4F"/>
<path d="M19.81 14.4751H18.29V16.0051H19.81V14.4751Z" fill="#BFFB4F"/>
<path d="M18.29 22.0952H16.76V23.6252H18.29V22.0952Z" fill="#BFFB4F"/>
<path d="M12.19 17.5254V19.0554H13.72V20.5754H16.76V19.0554H18.29V17.5254H12.19Z" fill="#BFFB4F"/>
<path d="M16.76 23.625H13.72V25.145H16.76V23.625Z" fill="#BFFB4F"/>
<path d="M15.24 8.38523V11.4352H16.76V8.38523H19.81V6.86523H12.19V8.38523H15.24Z" fill="#BFFB4F"/>
<path d="M12.19 14.4751H10.67V16.0051H12.19V14.4751Z" fill="#BFFB4F"/>
<path d="M12.19 8.38525H10.67V11.4353H12.19V8.38525Z" fill="#BFFB4F"/>
<path d="M12.19 5.33496H10.67V6.86496H12.19V5.33496Z" fill="#BFFB4F"/>
<path d="M10.67 3.81494H9.14999V5.33494H10.67V3.81494Z" fill="#BFFB4F"/>
<path d="M9.15001 26.6753H6.10001V28.1953H9.15001V26.6753Z" fill="#BFFB4F"/>
<path d="M9.14999 22.0952H7.62V23.6252H9.14999V22.0952Z" fill="#BFFB4F"/>
<path d="M9.14999 19.0552H7.62V20.5752H9.14999V19.0552Z" fill="#BFFB4F"/>
<path d="M9.14999 2.28516H7.62V3.81516H9.14999V2.28516Z" fill="#BFFB4F"/>
<path d="M7.62001 3.81494H6.10001V6.86494H7.62001V3.81494Z" fill="#BFFB4F"/>
<path d="M6.10001 25.145H4.57001V26.675H6.10001V25.145Z" fill="#BFFB4F"/>
<path d="M6.10001 6.86523H4.57001V9.90523H6.10001V6.86523Z" fill="#BFFB4F"/>
<path d="M4.56999 23.625H3.04999V25.145H4.56999V23.625Z" fill="#BFFB4F"/>
<path d="M6.1 22.0951V20.5751H3.05V19.0551H6.1V17.5251H3.05V12.9551H1.53V17.5251H0V19.0551H1.53V20.5751H0V22.0951H1.53V23.6251H3.05V22.0951H6.1Z" fill="#BFFB4F"/>
<path d="M4.56999 9.90527H3.04999V12.9553H4.56999V9.90527Z" fill="#BFFB4F"/>
</svg>
