<svg width="32" height="32" viewBox="0 0 32 32" fill="none" xmlns="http://www.w3.org/2000/svg">
<path d="M32 18.2849H30.48V19.8149H32V18.2849Z" fill="#BFFB4F"/>
<path d="M30.4801 16.7649H27.4301V18.2849H30.4801V16.7649Z" fill="#BFFB4F"/>
<path d="M28.9501 13.7148H27.4301V15.2448H28.9501V13.7148Z" fill="#BFFB4F"/>
<path d="M22.86 15.2449V12.1949H21.34V10.6649H19.81V7.6249H21.34V6.0949H27.43V7.6249H28.95V13.7149H30.48V4.5749H28.95V3.0449H27.43V1.5249H21.34V3.0449H19.81V4.5749H18.29V9.1449H13.72V4.5749H12.19V3.0449H10.67V1.5249H4.57003V3.0449H3.05003V4.5749H1.53003V13.7149H3.05003V7.6249H4.57003V6.0949H10.67V7.6249H12.19V10.6649H10.67V12.1949H9.15003V15.2449H4.57003V16.7649H9.15003V22.8549H10.67V15.2449H12.19V13.7149H19.81V15.2449H21.34V22.8549H22.86V16.7649H27.43V15.2449H22.86Z" fill="#BFFB4F"/>
<path d="M25.91 28.9548H24.38V30.4748H25.91V28.9548Z" fill="#BFFB4F"/>
<path d="M24.3801 27.4348H22.8601V28.9548H24.3801V27.4348Z" fill="#BFFB4F"/>
<path d="M22.8601 25.9048H19.8101V27.4348H22.8601V25.9048Z" fill="#BFFB4F"/>
<path d="M21.3401 22.855H19.8101V24.385H21.3401V22.855Z" fill="#BFFB4F"/>
<path d="M19.81 16.7649H18.29V19.8149H19.81V16.7649Z" fill="#BFFB4F"/>
<path d="M19.8099 24.385H12.1899V25.905H19.8099V24.385Z" fill="#BFFB4F"/>
<path d="M18.29 21.335H13.72V22.855H18.29V21.335Z" fill="#BFFB4F"/>
<path d="M13.7199 16.7649H12.1899V19.8149H13.7199V16.7649Z" fill="#BFFB4F"/>
<path d="M12.1899 22.855H10.6699V24.385H12.1899V22.855Z" fill="#BFFB4F"/>
<path d="M12.1899 25.9048H9.1499V27.4348H12.1899V25.9048Z" fill="#BFFB4F"/>
<path d="M9.15012 27.4348H7.62012V28.9548H9.15012V27.4348Z" fill="#BFFB4F"/>
<path d="M7.6201 28.9548H6.1001V30.4748H7.6201V28.9548Z" fill="#BFFB4F"/>
<path d="M4.57005 13.7148H3.05005V15.2448H4.57005V13.7148Z" fill="#BFFB4F"/>
<path d="M4.57003 16.7649H1.53003V18.2849H4.57003V16.7649Z" fill="#BFFB4F"/>
<path d="M1.53 18.2849H0V19.8149H1.53V18.2849Z" fill="#BFFB4F"/>
</svg>
