<svg width="32" height="32" viewBox="0 0 32 32" fill="none" xmlns="http://www.w3.org/2000/svg">
<g clip-path="url(#clip0_1178_12378)">
<path d="M32 12.1899H30.47V19.8099H32V12.1899Z" fill="#BFFB4F"/>
<path d="M28.95 3.05V0H27.43V1.52H25.9V3.05H24.38V7.62H28.95V6.1H30.47V4.57H32V3.05H28.95Z" fill="#BFFB4F"/>
<path d="M30.47 19.8101H28.95V22.8601H30.47V19.8101Z" fill="#BFFB4F"/>
<path d="M30.47 9.13989H28.95V12.1899H30.47V9.13989Z" fill="#BFFB4F"/>
<path d="M28.95 22.8601H27.43V25.9101H28.95V22.8601Z" fill="#BFFB4F"/>
<path d="M27.43 25.9099H25.9V27.4299H27.43V25.9099Z" fill="#BFFB4F"/>
<path d="M25.9 27.4299H22.86V28.9499H25.9V27.4299Z" fill="#BFFB4F"/>
<path d="M24.38 7.62012H22.86V9.14012H24.38V7.62012Z" fill="#BFFB4F"/>
<path d="M22.86 9.13989H21.33V10.6699H22.86V9.13989Z" fill="#BFFB4F"/>
<path d="M22.86 28.95H19.81V30.4799H22.86V28.95Z" fill="#BFFB4F"/>
<path d="M21.33 13.72H19.81V18.29H21.33V13.72Z" fill="#BFFB4F"/>
<path d="M21.33 10.6699H19.81V12.1899H21.33V10.6699Z" fill="#BFFB4F"/>
<path d="M22.86 1.52002H19.81V3.05002H22.86V1.52002Z" fill="#BFFB4F"/>
<path d="M19.81 18.29H18.28V19.81H19.81V18.29Z" fill="#BFFB4F"/>
<path d="M19.81 12.1899H18.28V13.7199H19.81V12.1899Z" fill="#BFFB4F"/>
<path d="M19.81 30.48H12.19V32H19.81V30.48Z" fill="#BFFB4F"/>
<path d="M18.28 13.72H16.76V15.24H18.28V13.72Z" fill="#BFFB4F"/>
<path d="M18.28 19.8101H13.71V21.3301H18.28V19.8101Z" fill="#BFFB4F"/>
<path d="M16.76 15.24H15.24V16.76H16.76V15.24Z" fill="#BFFB4F"/>
<path d="M18.28 10.6699H13.71V12.1899H18.28V10.6699Z" fill="#BFFB4F"/>
<path d="M19.81 0H12.19V1.52H19.81V0Z" fill="#BFFB4F"/>
<path d="M13.71 18.29H12.19V19.81H13.71V18.29Z" fill="#BFFB4F"/>
<path d="M13.71 12.1899H12.19V13.7199H13.71V12.1899Z" fill="#BFFB4F"/>
<path d="M12.19 28.95H9.14V30.4799H12.19V28.95Z" fill="#BFFB4F"/>
<path d="M12.19 13.72H10.66V18.29H12.19V13.72Z" fill="#BFFB4F"/>
<path d="M12.19 1.52002H9.14V3.05002H12.19V1.52002Z" fill="#BFFB4F"/>
<path d="M9.14 27.4299H6.09V28.9499H9.14V27.4299Z" fill="#BFFB4F"/>
<path d="M9.14 3.05005H6.09V4.57005H9.14V3.05005Z" fill="#BFFB4F"/>
<path d="M7.62 12.1901H9.14V9.14007H12.19V7.62007H21.33V6.10007H19.81V4.57007H12.19V6.10007H9.14V7.62007H7.62V9.14007H6.09V12.1901H4.57V19.8101H6.09V22.8601H7.62V24.3801H9.14V25.9101H12.19V27.4301H19.81V25.9101H22.86V24.3801H24.38V22.8601H25.9V19.8101H27.43V12.1901H25.9V10.6701H24.38V19.8101H22.86V22.8601H21.33V24.3801H12.19V22.8601H9.14V19.8101H7.62V12.1901Z" fill="#BFFB4F"/>
<path d="M6.09 25.9099H4.57V27.4299H6.09V25.9099Z" fill="#BFFB4F"/>
<path d="M6.09 4.57007H4.57V6.10007H6.09V4.57007Z" fill="#BFFB4F"/>
<path d="M4.57 22.8601H3.05V25.9101H4.57V22.8601Z" fill="#BFFB4F"/>
<path d="M4.57 6.1001H3.05V9.1401H4.57V6.1001Z" fill="#BFFB4F"/>
<path d="M3.05 19.8101H1.52V22.8601H3.05V19.8101Z" fill="#BFFB4F"/>
<path d="M3.05 9.13989H1.52V12.1899H3.05V9.13989Z" fill="#BFFB4F"/>
<path d="M1.52 12.1899H0V19.8099H1.52V12.1899Z" fill="#BFFB4F"/>
</g>
<defs>
<clipPath id="clip0_1178_12378">
<rect width="32" height="32" fill="white"/>
</clipPath>
</defs>
</svg>